Coordinates
version=1
nRows=28
nColumns=38
inDegrees=no

Units are S.I. units (second, meters, Newtons, ...)
If the header above contains a line with 'inDegrees', this indicates whether rotational values are in degrees (yes) or radians (no).

endheader
time	pelvis_tilt	pelvis_list	pelvis_rotation	pelvis_tx	pelvis_ty	pelvis_tz	hip_flexion_r	hip_adduction_r	hip_rotation_r	knee_angle_r	ankle_angle_r	subtalar_angle_r	mtp_angle_r	hip_flexion_l	hip_adduction_l	hip_rotation_l	knee_angle_l	ankle_angle_l	subtalar_angle_l	mtp_angle_l	lumbar_extension	lumbar_bending	lumbar_rotation	arm_flex_r	arm_add_r	arm_rot_r	elbow_flex_r	pro_sup_r	wrist_flex_r	wrist_dev_r	arm_flex_l	arm_add_l	arm_rot_l	elbow_flex_l	pro_sup_l	wrist_flex_l	wrist_dev_l
30	0.114702	1.1896	1.51758	0.687915	0.50647	0.718535	1.33647	-0.140875	0.0710257	1.50481	-0.0731905	0	0	1.25601	-0.250636	-0.0908273	1.43391	-0.0524358	0	0	-0.56304	0.18186	0.0588506	0.456298	-0.448002	-0.0525037	0.775341	1.24152	0	0	0.237253	-0.285897	0.0451656	0.902145	1.5708	0	0
30.01	0.113763	1.18793	1.5183	0.687872	0.506347	0.717512	1.34023	-0.14014	0.072963	1.50679	-0.0727711	0	0	1.26003	-0.250634	-0.0899627	1.43722	-0.0517062	0	0	-0.562708	0.182263	0.0587941	0.461263	-0.448731	-0.0432913	0.768293	1.23325	0	0	0.237712	-0.285789	0.0447316	0.902092	1.5708	0	0
30.02	0.112823	1.18616	1.51888	0.687836	0.506227	0.716561	1.34381	-0.138634	0.0754549	1.50777	-0.0725993	0	0	1.26398	-0.250788	-0.0892283	1.44027	-0.0510023	0	0	-0.562435	0.182471	0.0593995	0.465471	-0.44986	-0.0347312	0.761955	1.22642	0	0	0.238264	-0.285518	0.0444221	0.902683	1.5708	0	0
30.03	0.111768	1.18478	1.51975	0.687706	0.506118	0.715735	1.34703	-0.138121	0.0770796	1.50948	-0.0726153	0	0	1.26721	-0.250525	-0.0887338	1.44292	-0.05037	0	0	-0.562789	0.182603	0.0605625	0.468043	-0.451757	-0.0280358	0.757999	1.22235	0	0	0.239152	-0.284714	0.0439872	0.903862	1.5708	0	0
30.04	0.111351	1.18347	1.52024	0.687484	0.505983	0.715007	1.35	-0.138431	0.0779398	1.51136	-0.0726907	0	0	1.27022	-0.249805	-0.087909	1.44529	-0.04978	0	0	-0.56324	0.182936	0.0619741	0.469361	-0.454602	-0.0224024	0.756144	1.21925	0	0	0.240175	-0.28343	0.0432881	0.905558	1.5708	0	0
30.05	0.110854	1.18171	1.52071	0.687259	0.505846	0.714326	1.35349	-0.138975	0.0783573	1.51354	-0.0727803	0	0	1.2735	-0.248989	-0.0870335	1.44725	-0.0492155	0	0	-0.563088	0.183038	0.0633282	0.469783	-0.458209	-0.0168454	0.75571	1.2152	0	0	0.240767	-0.281912	0.0419626	0.907903	1.5708	0	0
30.06	0.110808	1.17993	1.52073	0.687128	0.505763	0.713767	1.35677	-0.139457	0.0780527	1.51581	-0.0727797	0	0	1.27653	-0.24856	-0.0862683	1.44875	-0.0487908	0	0	-0.562861	0.182886	0.0640628	0.470738	-0.461461	-0.0103546	0.754522	1.21016	0	0	0.240468	-0.280734	0.0394289	0.911126	1.5708	0	0
30.07	0.111182	1.17929	1.52	0.687095	0.505645	0.713314	1.35848	-0.139063	0.0784407	1.51679	-0.0728415	0	0	1.27843	-0.248782	-0.0857162	1.4504	-0.0483784	0	0	-0.561735	0.184375	0.0608682	0.477737	-0.461035	0.0011348	0.747213	1.20484	0	0	0.238164	-0.281105	0.0346077	0.912004	1.5708	0	0
30.08	0.111326	1.17911	1.51949	0.68705	0.50554	0.712968	1.35923	-0.13863	0.0793639	1.51653	-0.0729354	0	0	1.27962	-0.248874	-0.085466	1.45183	-0.0479183	0	0	-0.561218	0.185518	0.0582299	0.483588	-0.460669	0.0117046	0.7405	1.19833	0	0	0.236185	-0.28154	0.0305013	0.913361	1.5708	0	0
30.09	0.111413	1.17932	1.51904	0.686975	0.505493	0.712713	1.35973	-0.138871	0.0792635	1.51756	-0.0728592	0	0	1.28012	-0.248863	-0.0852843	1.45301	-0.0473978	0	0	-0.561019	0.186521	0.0559135	0.488314	-0.460743	0.0215561	0.735141	1.1923	0	0	0.234581	-0.281588	0.027107	0.914549	1.5708	0	0
30.1	0.111971	1.17945	1.51799	0.686928	0.505497	0.712504	1.36035	-0.139288	0.0783769	1.51948	-0.072597	0	0	1.28052	-0.2492	-0.0849783	1.45404	-0.0469003	0	0	-0.560602	0.187382	0.0540536	0.492358	-0.461744	0.0316769	0.731018	1.18729	0	0	0.233061	-0.281493	0.0241034	0.915643	1.5708	0	0
30.11	0.113083	1.17941	1.51647	0.686905	0.505531	0.712381	1.36049	-0.139114	0.0776473	1.51984	-0.0725952	0	0	1.28093	-0.249632	-0.0843894	1.45479	-0.046544	0	0	-0.56	0.188145	0.0524774	0.495908	-0.463205	0.0419108	0.727708	1.18213	0	0	0.231673	-0.281406	0.021314	0.916693	1.5708	0	0
30.12	0.114225	1.17901	1.51489	0.686885	0.505548	0.712329	1.36076	-0.139247	0.0767002	1.52013	-0.0727073	0	0	1.28159	-0.249975	-0.0836391	1.45518	-0.0463849	0	0	-0.559092	0.188645	0.0512882	0.498852	-0.464908	0.0516307	0.725185	1.17651	0	0	0.230455	-0.281247	0.0187384	0.917901	1.5708	0	0
30.13	0.115322	1.17821	1.5129	0.686944	0.505552	0.712316	1.36117	-0.138492	0.0761815	1.51931	-0.0731137	0	0	1.28253	-0.250807	-0.0829783	1.45529	-0.0463837	0	0	-0.557743	0.188702	0.0507652	0.501281	-0.4667	0.0607693	0.723179	1.17075	0	0	0.229502	-0.280978	0.0167466	0.918778	1.5708	0	0
30.14	0.115774	1.17754	1.51125	0.687016	0.505571	0.7124	1.36183	-0.137736	0.0752796	1.51933	-0.0734987	0	0	1.28297	-0.251673	-0.0826438	1.45499	-0.0464122	0	0	-0.556478	0.188222	0.0506042	0.503545	-0.468969	0.0698783	0.721596	1.16542	0	0	0.228915	-0.280627	0.0155561	0.919244	1.5708	0	0
30.15	0.116251	1.17744	1.50966	0.687106	0.505645	0.712567	1.3616	-0.137564	0.0743929	1.51909	-0.0736217	0	0	1.28264	-0.252585	-0.0824486	1.45462	-0.0464412	0	0	-0.555602	0.187495	0.050622	0.505494	-0.471718	0.0790851	0.720542	1.16011	0	0	0.228514	-0.280572	0.0155404	0.919359	1.5708	0	0
30.16	0.116428	1.17717	1.50835	0.687247	0.505725	0.712729	1.3611	-0.136669	0.0743492	1.51753	-0.0736517	0	0	1.2825	-0.253467	-0.0822905	1.45433	-0.0464916	0	0	-0.554308	0.186402	0.0508574	0.50678	-0.474538	0.0876126	0.720044	1.15328	0	0	0.228148	-0.28083	0.0160516	0.919724	1.5708	0	0
30.17	0.117244	1.17698	1.50633	0.687466	0.505812	0.712865	1.3605	-0.134843	0.0746345	1.51578	-0.0738604	0	0	1.2825	-0.25482	-0.0819692	1.45443	-0.0463812	0	0	-0.552825	0.185324	0.0514908	0.507647	-0.476928	0.0954668	0.719433	1.14418	0	0	0.227637	-0.281569	0.0173214	0.920628	1.5708	0	0
30.18	0.117649	1.17755	1.50512	0.68756	0.50595	0.713106	1.35935	-0.134345	0.0741326	1.51528	-0.0738044	0	0	1.28145	-0.25538	-0.0817683	1.45437	-0.0461727	0	0	-0.552129	0.184313	0.0520376	0.508332	-0.479104	0.10191	0.718492	1.13821	0	0	0.227252	-0.282071	0.0186475	0.921812	1.5708	0	0
30.19	0.11855	1.17837	1.50375	0.687646	0.506173	0.713438	1.35745	-0.134221	0.0732265	1.51445	-0.0734705	0	0	1.2799	-0.255891	-0.0815644	1.45404	-0.0459862	0	0	-0.551915	0.183423	0.0527416	0.508786	-0.481574	0.108209	0.717416	1.13296	0	0	0.226853	-0.282436	0.0199123	0.923096	1.5708	0	0
30.2	0.12006	1.17908	1.50199	0.687768	0.506452	0.713814	1.35552	-0.13416	0.0719681	1.51387	-0.0732021	0	0	1.27836	-0.256521	-0.0813	1.45342	-0.0457899	0	0	-0.551737	0.182823	0.053398	0.509188	-0.483689	0.113904	0.716003	1.12717	0	0	0.226184	-0.282545	0.0208079	0.924427	1.5708	0	0
30.21	0.123051	1.1806	1.49897	0.687849	0.506736	0.714298	1.35229	-0.134011	0.0700955	1.51246	-0.0729529	0	0	1.27602	-0.257159	-0.0805385	1.45273	-0.0451494	0	0	-0.551171	0.184194	0.0518822	0.513469	-0.484308	0.124311	0.710896	1.11786	0	0	0.224713	-0.283219	0.0207959	0.923442	1.5708	0	0
30.22	0.12521	1.18212	1.49651	0.687895	0.506997	0.714803	1.34942	-0.134027	0.0686629	1.51146	-0.0720099	0	0	1.27346	-0.257603	-0.0801257	1.45197	-0.0437252	0	0	-0.550756	0.185082	0.0519267	0.515393	-0.486164	0.132524	0.7081	1.10543	0	0	0.224435	-0.283601	0.0225579	0.921842	1.5708	0	0
30.23	0.126862	1.18334	1.49392	0.6881	0.507271	0.715329	1.34679	-0.132754	0.0682203	1.51027	-0.073958	0	0	1.271	-0.259017	-0.0802913	1.4511	-0.0452216	0	0	-0.550087	0.185908	0.0499014	0.519814	-0.479994	0.127106	0.700064	1.12988	0	0	0.22135	-0.284394	0.0204154	0.921822	1.5708	0	0
30.24	0.128741	1.18419	1.49139	0.688318	0.507586	0.715863	1.34428	-0.131305	0.0676655	1.50913	-0.0737423	0	0	1.26881	-0.260278	-0.0801844	1.45008	-0.0451111	0	0	-0.54931	0.186257	0.0502702	0.520853	-0.480244	0.130319	0.697481	1.12646	0	0	0.220186	-0.284639	0.0211251	0.921099	1.5708	0	0
30.25	0.131443	1.18676	1.48929	0.688285	0.507872	0.716653	1.33928	-0.131511	0.0662559	1.50719	-0.0731325	0	0	1.26467	-0.259863	-0.0795224	1.4484	-0.0450438	0	0	-0.550181	0.187567	0.0499239	0.522744	-0.480645	0.134228	0.694273	1.11933	0	0	0.219886	-0.284848	0.0226528	0.919872	1.5708	0	0
30.26	0.133149	1.18898	1.48813	0.688243	0.50818	0.717395	1.33488	-0.132178	0.0649899	1.50541	-0.0726052	0	0	1.26084	-0.259294	-0.0793503	1.44678	-0.0450853	0	0	-0.550586	0.188446	0.04977	0.523557	-0.480747	0.136547	0.691698	1.11475	0	0	0.219429	-0.285074	0.0243506	0.91907	1.5708	0	0
30.27	0.134086	1.19067	1.48733	0.688276	0.508513	0.718067	1.33155	-0.132466	0.064073	1.50426	-0.0723229	0	0	1.25755	-0.259158	-0.0796393	1.44522	-0.0452592	0	0	-0.550371	0.188635	0.0500174	0.523584	-0.480908	0.138112	0.689533	1.11296	0	0	0.218615	-0.285443	0.026189	0.918565	1.5708	0	0
